<?xml version="1.0" encoding="utf-8"?>
<!-- Generator: Adobe Illustrator 15.0.0, SVG Export Plug-In . SVG Version: 6.00 Build 0)  -->
<!DOCTYPE svg PUBLIC "-//W3C//DTD SVG 1.1//EN" "http://www.w3.org/Graphics/SVG/1.1/DTD/svg11.dtd">
<svg version="1.1" id="Layer_1" xmlns:sketch="http://www.bohemiancoding.com/sketch/ns"
	 xmlns="http://www.w3.org/2000/svg" xmlns:xlink="http://www.w3.org/1999/xlink" x="0px" y="0px" width="168px" height="63px"
	 viewBox="0 0 168 63" enable-background="new 0 0 168 63" xml:space="preserve">
<title>logo-footer</title>
<desc>Created with Sketch.</desc>
<g id="logo-footer" transform="translate(7.000000, 16.000000)" sketch:type="MSLayerGroup">
	<g id="Group" sketch:type="MSShapeGroup">
		<path id="Path-Copy-4" fill="#666666" d="M16.705-7.757V6.927h-17.46V-7.757h-5.667v35.444h5.667V12.143h17.46v15.545h5.667
			V-7.757H16.705z"/>
		<path id="H--PLA-Copy-4" fill="#666666" d="M74.907-7.757v35.444h5.667V15.434h6.229c8.424,0,13.528-4.354,13.528-11.596
			c0-7.241-5.104-11.595-13.528-11.595H74.907z M80.574,10.168V-2.491H86.7c4.799,0,7.76,2.228,7.76,6.329
			c0,3.95-2.757,6.33-7.76,6.33H80.574z M109.086,22.422V-7.757h-5.666v35.444h24.045v-5.266H109.086z"/>
		<path id="Path" fill="#666666" d="M154.228,27.688h6.28L142.945-7.757h-3.778l-17.562,35.444h6.279l3.625-7.393h19.094
			L154.228,27.688z M134.113,15.029l6.534-13.368l0.409-1.114l0.408,1.114L148,15.029H134.113z"/>
		<path id="Imported-Layers-Copy" fill="#666666" d="M82.145-12.063c-6.571-5.367-16.702-5.17-24.667,0.126
			c-0.124,0.083-0.238,0.174-0.359,0.258c-5.211-0.427-11.023,1.343-15.026,3.52c-3.611,1.965-6.426,4.917-9.29,7.647
			c-0.08,0.077-0.153,0.155-0.232,0.231c-2.415,0.148-4.84,0.99-6.91,2.368c-4.21,2.802-8.218,8.983-4.439,13.256
			c0.448,0.506,1.699-0.193,1.271-0.748c-2.508-3.25-0.006-7.045,2.659-9.527c1.45-1.349,3.187-2.309,5.007-2.713
			c-1.615,2.002-2.882,4.167-3.737,6.61c-1.996,5.702-2.533,13.471,3.349,17.457c6.178,4.188,11.9-1.466,14.461-6.098
			c0.924-1.674,1.375-3.523,1.441-5.413c0.368,5.629,2.552,11.353,8.214,13.501c9.271,3.52,15.283-6.199,17.436-12.613
			c1.361-4.054,1.433-8.313,0.768-12.472c-0.72-4.502-3.46-8.037-6.708-11.417c-0.34-0.354-0.7-0.677-1.076-0.975
			c0.139-0.068,0.276-0.139,0.415-0.211c5.656-2.94,11.295-4.202,15.528-1.526C81.217-10.191,83.147-11.245,82.145-12.063
			L82.145-12.063z M36.763,23.061c-3.286,2.523-5.906-2.2-6.335-4.448c-0.645-3.374,0.377-7.184,1.72-10.314
			c0.836-1.951,2.247-3.613,3.819-5.154c0.413,0.223,0.82,0.476,1.216,0.78C43.436,8.737,42.676,18.52,36.763,23.061L36.763,23.061z
			 M46.37,6.62c-0.46,1.903-0.751,4.17-0.75,6.521c-0.325-3.693-2.008-7.386-4.473-10.1c-0.824-0.906-1.758-1.605-2.757-2.133
			c0.276-0.245,0.552-0.49,0.824-0.733c3.19-2.858,6.267-5.135,10.654-6.383c0.754-0.214,1.482-0.362,2.187-0.458
			C49.146-2.681,47.458,2.121,46.37,6.62L46.37,6.62z M66.333,8.343c-0.019,4.451-1.741,8.722-4.399,12.44
			c-0.937,1.311-2.082,2.176-3.767,2.535c-2.583,0.55-4.021-2.739-4.745-4.328c-3.004-6.59-0.382-15.299,3.336-21.298
			c0.712-1.148,1.542-2.198,2.485-3.149C63.915-2.889,66.355,2.945,66.333,8.343L66.333,8.343z"/>
	</g>
</g>
<text transform="matrix(1.3537 0 0 1 17.4751 63)" fill="#666666" font-family="'Roboto-Light'" font-size="11">YOUR EVENT GURU</text>
</svg>
