<?xml version="1.0" encoding="UTF-8" standalone="no"?>
<svg width="30px" height="30px" viewBox="0 0 30 30" version="1.1" xmlns="http://www.w3.org/2000/svg" xmlns:xlink="http://www.w3.org/1999/xlink" xmlns:sketch="http://www.bohemiancoding.com/sketch/ns">
    <!-- Generator: Sketch 3.3.2 (12043) - http://www.bohemiancoding.com/sketch -->
    <title>download-app-banner-ea-icon-black@3x</title>
    <desc>Created with Sketch.</desc>
    <defs></defs>
    <g id="Invite-emails" stroke="none" stroke-width="1" fill="none" fill-rule="evenodd" sketch:type="MSPage">
        <path d="M10.45925,0 L19.54075,0 C22.5525,0 24.058,0 25.67925,0.5125 C27.44925,1.15675 28.84325,2.55075 29.4875,4.32075 C30,5.94175 30,7.44775 30,10.45925 L30,19.54075 C30,22.5525 30,24.058 29.4875,25.67925 C28.84325,27.44925 27.44925,28.84325 25.67925,29.48725 C24.058,30 22.5525,30 19.54075,30 L10.45925,30 C7.4475,30 5.94175,30 4.32075,29.48725 C2.55075,28.84325 1.15675,27.44925 0.5125,25.67925 C0,24.058 0,22.5525 0,19.54075 L0,10.45925 C0,7.44775 0,5.94175 0.5125,4.32075 C1.15675,2.55075 2.55075,1.15675 4.32075,0.5125 C5.94175,0 7.4475,0 10.45925,0 Z M21.5382687,8.76372867 C19.8322133,7.02285589 17.7370676,6.09145174 15.2761306,6.00701283 C12.7377251,5.9114108 10.5138535,6.79472771 8.72363108,8.56794489 C6.92554529,10.342307 6,12.5048019 6,15.0159293 C6,17.4148531 6.84632933,19.5152353 8.53636689,21.2500972 C10.199902,22.9809518 12.2635943,23.916077 14.6846321,23.9956499 C16.7978343,24.0574764 18.6390229,23.4589619 20.2064504,22.2831143 L20.2064504,23.6398616 L23.9942547,23.6398616 L23.9942547,15.0059111 C24.0790042,12.6167192 23.2245202,10.4940108 21.5382687,8.76372867 Z M19.8144479,19.6511963 C17.3005061,22.2038276 12.9293578,22.1774941 10.3554216,19.7350627 C7.58694031,17.1366341 7.56888373,12.6015488 10.4404623,10.0640879 C13.6647266,7.27216536 17.8678322,8.1924064 20.3849776,11.0942427 L12.8122813,18.5363164 C13.563668,19.0143265 14.3843686,19.2224183 15.308749,19.168034 C16.4069967,19.0956169 17.3214751,18.6634041 18.0871323,17.8862799 C18.9311317,17.0398871 19.3627422,16.0827219 19.2846912,14.9606862 L21.351587,12.9307175 C22.1784036,15.2660975 21.5737994,17.8845625 19.8144479,19.6511963 Z M12.0145882,12.0101902 C10.6862647,13.2830711 10.3248419,15.2320357 11.1874804,16.862136 L16.885496,11.2531023 C15.2458422,10.4144379 13.3300974,10.7444652 12.0145882,12.0101902 Z" id="download-app-banner-ea-icon-black" fill="#000000" sketch:type="MSShapeGroup"></path>
    </g>
</svg>