<?xml version="1.0" encoding="UTF-8" standalone="no"?>
<svg width="20px" height="18px" viewBox="0 0 20 18" version="1.1" xmlns="http://www.w3.org/2000/svg" xmlns:xlink="http://www.w3.org/1999/xlink" xmlns:sketch="http://www.bohemiancoding.com/sketch/ns">
    <!-- Generator: Sketch 3.3.2 (12043) - http://www.bohemiancoding.com/sketch -->
    <title>icon-add-host-black@3x</title>
    <desc>Created with Sketch.</desc>
    <defs></defs>
    <g id="Edit-Event" stroke="none" stroke-width="1" fill="none" fill-rule="evenodd" sketch:type="MSPage">
        <path d="M12.377,13.4478 C9.8856,12.5496 9.0894,11.7916 9.0894,10.1688 C9.0894,9.1948 9.85,9.5128 10.184,7.729 C10.3226,6.9888 10.9946,7.717 11.123,6.0276 C11.123,5.3544 10.7562,5.187 10.7562,5.187 C10.7562,5.187 10.9426,4.1906 11.0156,3.4238 C11.1062,2.4684 10.4578,0 7,0 C3.5422,0 2.8938,2.4684 2.9844,3.4238 C3.0572,4.1906 3.2438,5.187 3.2438,5.187 C3.2438,5.187 2.877,5.3544 2.877,6.0276 C3.0054,7.717 3.6774,6.9888 3.8156,7.729 C4.15,9.5128 4.9106,9.1948 4.9106,10.1688 C4.9106,11.7916 4.1144,12.5496 1.623,13.4478 C1.323,13.556 0.6078,13.724 0,13.9866 L0,18 L16,18 L16,15.8948 C16,15.268 14.8762,14.349 12.377,13.4478 L12.377,13.4478 Z M17,5.99895656 C17,5.44724809 16.5561352,5 16,5 L16,5 C15.4477153,5 15,5.44266033 15,5.99895656 L15,8 L12.9989566,8 C12.4472481,8 12,8.44386482 12,9 L12,9 C12,9.55228475 12.4426603,10 12.9989566,10 L15,10 L15,12.0010434 C15,12.5527519 15.4438648,13 16,13 L16,13 C16.5522847,13 17,12.5573397 17,12.0010434 L17,10 L19.0010434,10 C19.5527519,10 20,9.55613518 20,9 L20,9 C20,8.44771525 19.5573397,8 19.0010434,8 L17,8 L17,5.99895656 Z" id="icon-add-host-black" fill="#000000" sketch:type="MSShapeGroup"></path>
    </g>
</svg>