<?xml version="1.0" encoding="UTF-8" standalone="no"?>
<svg width="11px" height="11px" viewBox="0 0 11 11" version="1.1" xmlns="http://www.w3.org/2000/svg" xmlns:xlink="http://www.w3.org/1999/xlink" xmlns:sketch="http://www.bohemiancoding.com/sketch/ns">
    <!-- Generator: Sketch 3.3.2 (12043) - http://www.bohemiancoding.com/sketch -->
    <title>icon-cancel-x-white@3x</title>
    <desc>Created with Sketch.</desc>
    <defs></defs>
    <g id="The-Wall" stroke="none" stroke-width="1" fill="none" fill-rule="evenodd" sketch:type="MSPage">
        <path d="M10.4153893,8.97455549 C10.8139178,9.373084 10.8139178,10.0168608 10.4153893,10.4153893 C10.015839,10.8139178 9.36899653,10.8139178 8.97046802,10.4153893 L5.35714286,6.7979767 L1.7438177,10.4153893 C1.34528919,10.8139178 0.698446761,10.8139178 0.298896383,10.4153893 C-0.0996321275,10.0168608 -0.0996321275,9.373084 0.298896383,8.97455549 L3.91222154,5.35714286 L0.298896383,1.73973023 C-0.0996321275,1.34120172 -0.0996321275,0.697424893 0.298896383,0.298896383 C0.698446761,-0.0996321275 1.34528919,-0.0996321275 1.7438177,0.298896383 L5.35714286,3.91630901 L8.97046802,0.298896383 C9.36899653,-0.0996321275 10.015839,-0.0996321275 10.4153893,0.298896383 C10.8139178,0.697424893 10.8139178,1.34120172 10.4153893,1.73973023 L6.80206417,5.35714286 L10.4153893,8.97455549 L10.4153893,8.97455549 Z" id="icon-cancel-x-white" fill="#FFFFFF" sketch:type="MSShapeGroup"></path>
    </g>
</svg>