<?xml version="1.0" encoding="UTF-8" standalone="no"?>
<svg width="14px" height="13px" viewBox="0 0 14 13" version="1.1" xmlns="http://www.w3.org/2000/svg" xmlns:xlink="http://www.w3.org/1999/xlink" xmlns:sketch="http://www.bohemiancoding.com/sketch/ns">
    <!-- Generator: Sketch 3.3.2 (12043) - http://www.bohemiancoding.com/sketch -->
    <title>icon-calendar-black@3x</title>
    <desc>Created with Sketch.</desc>
    <defs></defs>
    <g id="Event-Details" stroke="none" stroke-width="1" fill="none" fill-rule="evenodd" sketch:type="MSPage">
        <path d="M11.7444444,1 L11.7444444,2.5 L9.25555556,2.5 L9.25555556,1 L4.74444444,1 L4.74444444,2.5 L2.25555556,2.5 L2.25555556,1 L1.55555556,1 C0.7,1 0,1.675 0,2.5 L0,11.5 C0,12.325 0.7,13 1.55555556,13 L12.4444444,13 C13.3,13 14,12.325 14,11.5 L14,2.5 C14,1.675 13.3,1 12.4444444,1 L11.7444444,1 Z M2,5 L12,5 L12,11 L2,11 L2,5 Z M3,2 L4,2 L4,0 L3,0 L3,2 Z M10,2 L11,2 L11,0 L10,0 L10,2 Z" id="icon-calendar-black" fill="#000000" sketch:type="MSShapeGroup"></path>
    </g>
</svg>