<?xml version="1.0" encoding="UTF-8" standalone="no"?>
<svg width="43px" height="35px" viewBox="0 0 43 35" version="1.1" xmlns="http://www.w3.org/2000/svg" xmlns:xlink="http://www.w3.org/1999/xlink" xmlns:sketch="http://www.bohemiancoding.com/sketch/ns">
    <!-- Generator: Sketch 3.3.2 (12043) - http://www.bohemiancoding.com/sketch -->
    <title>icon-email-sent-white@3x</title>
    <desc>Created with Sketch.</desc>
    <defs></defs>
    <g id="Event-Details" stroke="none" stroke-width="1" fill="none" fill-rule="evenodd" sketch:type="MSPage">
        <path d="M41.3675807,0.080811037 C40.5732366,0.36314437 1.32440867,14.323011 0.551795763,14.597411 C-0.104301011,14.8307444 -0.250870903,15.402411 0.528677484,15.717411 C1.45664523,16.0921444 9.30437641,19.2659444 9.30437641,19.2659444 L9.30345168,19.2659444 L14.5059893,21.370611 C14.5059893,21.370611 39.5601936,2.80101104 39.9009571,2.54854437 C40.2417205,2.29561104 40.635656,2.77021104 40.3873657,3.04134437 C40.1390753,3.31434437 22.1905054,22.9059444 22.1905054,22.9059444 C22.1895807,22.906411 22.1895807,22.9068777 22.1895807,22.9073444 L21.142785,24.0819444 L22.5271076,24.834211 L22.5271076,24.8346777 C22.5271076,24.8346777 33.27757,30.675011 34.0437097,31.0912777 C34.7150646,31.4557444 35.5880108,31.1528777 35.781742,30.309611 C36.0101506,29.3151444 42.3588925,1.70014437 42.5008388,1.08554437 C42.6843979,0.285211037 42.1619248,-0.201522296 41.3675807,0.080811037 L41.3675807,0.080811037 Z M14.4583657,33.977611 C14.4583657,34.5539444 14.778785,34.7135444 15.2235807,34.3061444 C15.8033872,33.7755444 21.8099786,28.334211 21.8099786,28.334211 L14.4583657,24.4949444 L14.4583657,33.977611 L14.4583657,33.977611 Z" id="icon-email-sent-white" fill="#FFFFFF" sketch:type="MSShapeGroup"></path>
    </g>
</svg>