<?xml version="1.0" encoding="UTF-8" standalone="no"?>
<svg width="19px" height="19px" viewBox="0 0 19 19" version="1.1" xmlns="http://www.w3.org/2000/svg" xmlns:xlink="http://www.w3.org/1999/xlink" xmlns:sketch="http://www.bohemiancoding.com/sketch/ns">
    <!-- Generator: Sketch 3.3.2 (12043) - http://www.bohemiancoding.com/sketch -->
    <title>icon-account-black@3x</title>
    <desc>Created with Sketch.</desc>
    <defs></defs>
    <g id="Home" stroke="none" stroke-width="1" fill="none" fill-rule="evenodd" sketch:type="MSPage">
        <path d="M11.5890682,10.6157802 C11.5890682,9.59896703 12.3498686,9.93094505 12.6839821,8.06873626 C12.8224381,7.296 13.4943033,8.05620879 13.6230572,6.29254945 C13.6230572,5.58954945 13.2561994,5.415 13.2561994,5.415 C13.2561994,5.415 13.4425591,4.3748022 13.5157286,3.5742967 C13.6060787,2.5769011 12.9578622,0 9.49989894,0 C6.04213785,0 5.39351709,2.5769011 5.48427144,3.5742967 C5.55744088,4.3748022 5.7438006,5.415 5.7438006,5.415 C5.7438006,5.415 5.3769428,5.58954945 5.3769428,6.29254945 C5.5052925,8.05620879 6.17715769,7.296 6.31581579,8.06873626 C6.65013138,9.93094505 7.41052755,9.59896703 7.41052755,10.6157802 C7.41052755,12.3099121 6.61455729,13.101022 4.12315826,14.0389121 C1.62387634,14.9797253 3.78994088e-15,15.9389121 3.78994088e-15,16.5930549 C3.78994088e-15,17.246989 3.78994088e-15,18.7912088 0,19 L19,19 C19,18.7912088 19,17.246989 19,16.5930549 C19,15.9389121 17.3761237,14.9797253 14.8768417,14.0389121 C12.3854427,13.101022 11.5890682,12.3099121 11.5890682,10.6157802 Z" id="icon-account-black" fill="#333333" sketch:type="MSShapeGroup"></path>
    </g>
</svg>