<?xml version="1.0" encoding="UTF-8" standalone="no"?>
<svg width="25px" height="20px" viewBox="0 0 25 20" version="1.1" xmlns="http://www.w3.org/2000/svg" xmlns:xlink="http://www.w3.org/1999/xlink" xmlns:sketch="http://www.bohemiancoding.com/sketch/ns">
    <!-- Generator: Sketch 3.3.3 (12072) - http://www.bohemiancoding.com/sketch -->
    <title>icon-camera-black@3x</title>
    <desc>Created with Sketch.</desc>
    <defs></defs>
    <g id="The-Wall" stroke="none" stroke-width="1" fill="none" fill-rule="evenodd" sketch:type="MSPage">
        <g id="icon-camera-black" sketch:type="MSLayerGroup">
            <path d="M21.875,2.85714286 L19.53125,2.85714286 L18.75,1.42857143 C18.2898438,0.597857143 18.05,0 17.1875,0 L7.8125,0 C6.95,0 6.6640625,0.681428571 6.25,1.42857143 L5.46875,2.85714286 L3.125,2.85714286 C1.39921875,2.85714286 0,4.13642857 0,5.71428571 L0,17.1428571 C0,18.7207143 1.39921875,20 3.125,20 L21.875,20 C23.6007813,20 25,18.7207143 25,17.1428571 L25,5.71428571 C25,4.13642857 23.6007813,2.85714286 21.875,2.85714286 L21.875,2.85714286 Z" id="Path" fill="#000000" sketch:type="MSShapeGroup"></path>
            <path d="M12.75,4.71428571 C9.5745625,4.71428571 7,7.27285714 7,10.4285714 C7,13.5842857 9.5745625,16.1428571 12.75,16.1428571 C15.9254375,16.1428571 18.5,13.5842857 18.5,10.4285714 C18.5,7.27285714 15.9254375,4.71428571 12.75,4.71428571 L12.75,4.71428571 Z" id="Path" stroke="#FFFFFF" stroke-width="2" sketch:type="MSShapeGroup"></path>
        </g>
    </g>
</svg>