<?xml version="1.0" encoding="UTF-8" standalone="no"?>
<svg width="19px" height="19px" viewBox="0 0 19 19" version="1.1" xmlns="http://www.w3.org/2000/svg" xmlns:xlink="http://www.w3.org/1999/xlink" xmlns:sketch="http://www.bohemiancoding.com/sketch/ns">
    <!-- Generator: Sketch 3.3.2 (12043) - http://www.bohemiancoding.com/sketch -->
    <title>icon-settings-black@3x</title>
    <desc>Created with Sketch.</desc>
    <defs></defs>
    <g id="Home" stroke="none" stroke-width="1" fill="none" fill-rule="evenodd" sketch:type="MSPage">
        <path d="M17.1726071,9.5 C17.1726071,8.31521429 17.901619,7.38014286 19,6.73730952 C18.8023095,6.07615476 18.5401548,5.44282143 18.2176071,4.84635714 C16.9862262,5.16867857 15.9894048,4.68621429 15.1515952,3.84840476 C14.3137857,3.01082143 14.0572857,2.01354762 14.3796071,0.782392857 C13.783369,0.459845238 13.1502619,0.197690476 12.4886548,0 C11.8455952,1.09838095 10.6847857,1.82739286 9.5,1.82739286 C8.31544048,1.82739286 7.15440476,1.09838095 6.51134524,0 C5.84996429,0.197464286 5.21663095,0.459845238 4.62061905,0.782166667 C4.9424881,2.01354762 4.68644048,3.01036905 3.84863095,3.84840476 C3.01059524,4.68621429 2.01354762,5.16867857 0.782392857,4.84680952 C0.459845238,5.44282143 0.197690476,6.07615476 0,6.73730952 C1.09815476,7.38014286 1.82739286,8.31521429 1.82739286,9.5 C1.82739286,10.6845595 1.09815476,11.8458214 0,12.4884286 C0.197690476,13.1498095 0.459845238,13.7831429 0.782392857,14.3796071 C2.01377381,14.0572857 3.01059524,14.3137857 3.84863095,15.1515952 C4.68621429,15.989631 4.9424881,16.9862262 4.62061905,18.2176071 C5.21663095,18.5399286 5.84996429,18.8025357 6.51157143,19 C7.15463095,17.9018452 8.31544048,17.172381 9.5,17.172381 C10.6847857,17.172381 11.8455952,17.9018452 12.4886548,19 C13.1502619,18.8023095 13.783369,18.5399286 14.3798333,18.217381 C14.0577381,16.9862262 14.3137857,15.989631 15.1515952,15.1515952 C15.9894048,14.3137857 16.9864524,13.8310952 18.2176071,14.1534167 C18.5401548,13.5569524 18.8023095,12.923619 19,12.2622381 C17.901619,11.619631 17.1726071,10.6845595 17.1726071,9.5 L17.1726071,9.5 Z M9.5,14 C7.01459075,14 5,11.985218 5,9.50012318 C5,7.01478197 7.01459075,5 9.5,5 C11.9854093,5 14,7.01478197 14,9.50012318 C14,11.985218 11.9854093,14 9.5,14 L9.5,14 Z" id="icon-settings-black" fill="#333333" sketch:type="MSShapeGroup"></path>
    </g>
</svg>