<?xml version="1.0" encoding="UTF-8" standalone="no"?>
<svg width="37px" height="51px" viewBox="0 0 37 51" version="1.1" xmlns="http://www.w3.org/2000/svg" xmlns:xlink="http://www.w3.org/1999/xlink" xmlns:sketch="http://www.bohemiancoding.com/sketch/ns">
    <!-- Generator: Sketch 3.3.2 (12043) - http://www.bohemiancoding.com/sketch -->
    <title>icon-trash-remove-event@3x</title>
    <desc>Created with Sketch.</desc>
    <defs></defs>
    <g id="Home" stroke="none" stroke-width="1" fill="none" fill-rule="evenodd" sketch:type="MSPage">
        <path d="M1.42108547e-14,21.5938227 L2.70431916,45.4236411 C2.85011382,46.5571087 8.31618641,50.2760998 16.2278785,50.2819904 C24.1405525,50.2760998 29.606625,46.5571087 29.7524197,45.4236411 L32.456248,21.5938227 C28.3239266,23.9049381 22.1465527,25.0010979 16.2278785,25.0010979 C10.3096952,25.0010979 4.13183053,23.9049381 1.42108547e-14,21.5938227 Z M27.2748922,6.5563551 L25.6770417,3.84369079 C25.1110442,2.54773824 24.2897834,2.16042515 22.6045542,1.81631048 L18.1997882,0.91650706 C16.514559,0.572392387 15.6059195,0.606754765 14.5779935,1.57675561 L12.0445044,3.44606899 C5.64279339,3.26394838 0.577287953,5.21327701 0.146285553,7.32361792 L0.0623431718,7.73400289 C-0.697065386,11.452994 6.87002118,16.1385497 16.9637243,18.1998015 C27.0584093,20.2615442 35.8561599,18.9179752 36.6155684,15.1989841 L36.6995108,14.7885991 C37.1305132,12.6782582 33.2352922,8.89888751 27.2748922,6.5563551 Z M23.5421562,11.3739605 L21.1888242,7.53911912 L17.2577681,6.73651214 L13.5893388,9.34118041 L9.50119757,8.50617462 C9.50119757,8.50617462 15.0713391,4.08324566 15.8165118,3.48141315 C16.3874182,3.0199755 16.8969631,2.90510697 17.5032137,3.02881154 L22.416052,4.03219298 C23.0227934,4.15589754 23.4459415,4.46123182 23.791038,5.11018987 C24.2397125,5.95550437 27.6302974,12.2089663 27.6302974,12.2089663 L23.5421562,11.3739605 L23.5421562,11.3739605 Z" id="icon-trash-remove-event" fill="#FFFFFF" sketch:type="MSShapeGroup"></path>
    </g>
</svg>