<?xml version="1.0" encoding="UTF-8" standalone="no"?>
<svg width="20px" height="20px" viewBox="0 0 20 20" version="1.1" xmlns="http://www.w3.org/2000/svg" xmlns:xlink="http://www.w3.org/1999/xlink" xmlns:sketch="http://www.bohemiancoding.com/sketch/ns">
    <!-- Generator: Sketch 3.3.2 (12043) - http://www.bohemiancoding.com/sketch -->
    <title>icon-search-black@3x</title>
    <desc>Created with Sketch.</desc>
    <defs></defs>
    <g id="Create-Event" stroke="none" stroke-width="1" fill="none" fill-rule="evenodd" sketch:type="MSPage">
        <path d="M19.30625,16.70925 L14.5825,11.98575 C15.295,10.8155 15.70525,9.4415 15.70525,7.97125 C15.70525,3.70075 12.0045,0 7.733,0 C3.4625,0 0,3.4625 0,7.7335 C0,12.0045 3.70075,15.70475 7.97125,15.70475 C9.39125,15.70475 10.72125,15.32025 11.86475,14.65225 L16.61375,19.4015 C17.07875,19.86625 17.832,19.86625 18.2965,19.4015 L19.47475,18.22375 C19.9395,17.75875 19.771,17.174 19.30625,16.70925 L19.30625,16.70925 Z M2.38,7.7335 C2.38,4.7765 4.777,2.3795 7.733,2.3795 C10.6905,2.3795 13.32525,5.01425 13.32525,7.97125 C13.32525,10.92825 10.92825,13.32525 7.97125,13.32525 C5.01475,13.32525 2.38,10.6905 2.38,7.7335 L2.38,7.7335 Z" id="icon-search-black" fill="#000000" sketch:type="MSShapeGroup"></path>
    </g>
</svg>