<?xml version="1.0" encoding="UTF-8" standalone="no"?>
<svg width="22px" height="19px" viewBox="0 0 22 19" version="1.1" xmlns="http://www.w3.org/2000/svg" xmlns:xlink="http://www.w3.org/1999/xlink" xmlns:sketch="http://www.bohemiancoding.com/sketch/ns">
    <!-- Generator: Sketch 3.3.2 (12043) - http://www.bohemiancoding.com/sketch -->
    <title>icon-image-preview-retake@3x</title>
    <desc>Created with Sketch.</desc>
    <defs></defs>
    <g id="The-Wall" stroke="none" stroke-width="1" fill="none" fill-rule="evenodd" sketch:type="MSPage">
        <path d="M12.1850526,17.7951807 C16.9372632,17.7951807 20.7894737,14.0355181 20.7894737,9.39759036 C20.7894737,4.75945783 16.9372632,1 12.1850526,1 C7.50547368,1 3.70126316,4.64680723 3.58652632,9.1876506 L1,9.1876506 L4.87178947,13.386241 L8.74357895,9.1876506 L5.73768421,9.1876506 C5.85115789,5.8066988 8.69347368,3.09939759 12.1850526,3.09939759 C15.7492632,3.09939759 18.6383158,5.91914458 18.6383158,9.39759036 C18.6383158,12.8758313 15.7492632,15.6957831 12.1850526,15.6957831 C12.1850526,15.6957831 11.0574737,15.6605542 11.0574737,16.7469157 C11.0574737,17.7366024 12.1850526,17.7951807 12.1850526,17.7951807" id="icon-image-preview-retake" stroke="#FFFFFF" stroke-linecap="square" fill="#FFFFFF" sketch:type="MSShapeGroup"></path>
    </g>
</svg>