<?xml version="1.0" encoding="UTF-8" standalone="no"?>
<svg width="20px" height="20px" viewBox="0 0 20 20" version="1.1" xmlns="http://www.w3.org/2000/svg" xmlns:xlink="http://www.w3.org/1999/xlink" xmlns:sketch="http://www.bohemiancoding.com/sketch/ns">
    <!-- Generator: Sketch 3.3.2 (12043) - http://www.bohemiancoding.com/sketch -->
    <title>icon-social-facebook-white@3x</title>
    <desc>Created with Sketch.</desc>
    <defs></defs>
    <g id="Invite-process" stroke="none" stroke-width="1" fill="none" fill-rule="evenodd" sketch:type="MSPage">
        <g id="Home---Login-2" sketch:type="MSArtboardGroup" transform="translate(-36.000000, -124.000000)" fill="#FFFFFF">
            <g id="FB-Login-2" sketch:type="MSLayerGroup" transform="translate(15.000000, 109.000000)">
                <path d="M31,35 L21,35 L21,15 L41,15 L41,35 L34.3333333,35 L34.3333333,28.3333331 L37.6666666,28.3333331 L37.6666666,24.9999998 L34.3333333,24.9999998 L34.3333333,22.5446429 C34.3333333,20.8333334 37.6666666,21.6666668 37.6666666,21.6666668 L37.6666666,18.3333334 C34.3333333,18.3333334 33.44048,18.404014 32.6666666,19.1666666 C31.8928532,19.9293193 31,21.1607074 31,22.5446429 L31,24.9999998 L27.6666666,24.9999998 L27.6666666,28.3333331 L31,28.3333331 C31,28.3333331 30.8131351,32.3596233 31,35 Z" id="icon-social-facebook-white" sketch:type="MSShapeGroup"></path>
            </g>
        </g>
    </g>
</svg>