<?xml version="1.0" encoding="UTF-8" standalone="no"?>
<svg width="22px" height="17px" viewBox="0 0 22 17" version="1.1" xmlns="http://www.w3.org/2000/svg" xmlns:xlink="http://www.w3.org/1999/xlink" xmlns:sketch="http://www.bohemiancoding.com/sketch/ns">
    <!-- Generator: Sketch 3.3.2 (12043) - http://www.bohemiancoding.com/sketch -->
    <title>icon-email-sent-black@3x</title>
    <desc>Created with Sketch.</desc>
    <defs></defs>
    <g id="Event-Details" stroke="none" stroke-width="1" fill="none" fill-rule="evenodd" sketch:type="MSPage">
        <path d="M21.1648087,0.0392510751 C20.7584001,0.176384408 0.677604434,6.95689108 0.282314112,7.09017108 C-0.0533633078,7.20350441 -0.128352555,7.48117108 0.270486155,7.63417108 C0.745260348,7.81618441 4.76037863,9.35774441 4.76037863,9.35774441 L4.75990551,9.35774441 L7.42166895,10.3800111 C7.42166895,10.3800111 20.2400991,1.36049108 20.4144431,1.23786441 C20.5887872,1.11501108 20.7903356,1.34553108 20.6633034,1.47722441 C20.5362711,1.60982441 11.3532819,11.1257444 11.3532819,11.1257444 C11.3528087,11.1259711 11.3528087,11.1261977 11.3528087,11.1264244 L10.8172388,11.6969444 L11.5254969,12.0623311 L11.5254969,12.0625577 C11.5254969,12.0625577 17.0257335,14.8992911 17.417712,15.1014777 C17.7611958,15.2785044 18.2078195,15.1313977 18.3069378,14.7218111 C18.423798,14.2387844 21.6719915,0.825784408 21.7446152,0.527264408 C21.8385292,0.138531075 21.5712173,-0.0978822582 21.1648087,0.0392510751 L21.1648087,0.0392510751 Z M7.39730336,16.5034111 C7.39730336,16.7833444 7.56123884,16.8608644 7.78880874,16.6629844 C8.0854539,16.4052644 11.1585937,13.7623311 11.1585937,13.7623311 L7.39730336,11.8975444 L7.39730336,16.5034111 L7.39730336,16.5034111 Z" id="icon-email-sent-black" fill="#000000" sketch:type="MSShapeGroup"></path>
    </g>
</svg>