<?xml version="1.0" encoding="UTF-8" standalone="no"?>
<svg width="11px" height="12px" viewBox="0 0 11 12" version="1.1" xmlns="http://www.w3.org/2000/svg" xmlns:xlink="http://www.w3.org/1999/xlink" xmlns:sketch="http://www.bohemiancoding.com/sketch/ns">
    <!-- Generator: Sketch 3.3.3 (12072) - http://www.bohemiancoding.com/sketch -->
    <title>icon-cancel-x-grey</title>
    <desc>Created with Sketch.</desc>
    <defs></defs>
    <g id="Host---Create-Event" stroke="none" stroke-width="1" fill="none" fill-rule="evenodd" sketch:type="MSPage">
        <path d="M10.4153893,9.61741263 C10.8139178,10.0159411 10.8139178,10.659718 10.4153893,11.0582465 C10.015839,11.456775 9.36899653,11.456775 8.97046802,11.0582465 L5.35714286,7.44083384 L1.7438177,11.0582465 C1.34528919,11.456775 0.698446761,11.456775 0.298896383,11.0582465 C-0.0996321275,10.659718 -0.0996321275,10.0159411 0.298896383,9.61741263 L3.91222154,6 L0.298896383,2.38258737 C-0.0996321275,1.98405886 -0.0996321275,1.34028204 0.298896383,0.941753525 C0.698446761,0.543225015 1.34528919,0.543225015 1.7438177,0.941753525 L5.35714286,4.55916616 L8.97046802,0.941753525 C9.36899653,0.543225015 10.015839,0.543225015 10.4153893,0.941753525 C10.8139178,1.34028204 10.8139178,1.98405886 10.4153893,2.38258737 L6.80206417,6 L10.4153893,9.61741263 L10.4153893,9.61741263 Z" id="icon-cancel-x-grey" fill="#BFBFBF" sketch:type="MSShapeGroup"></path>
    </g>
</svg>