<?xml version="1.0" encoding="UTF-8" standalone="no"?>
<svg width="22px" height="14px" viewBox="0 0 22 14" version="1.1" xmlns="http://www.w3.org/2000/svg" xmlns:xlink="http://www.w3.org/1999/xlink" xmlns:sketch="http://www.bohemiancoding.com/sketch/ns">
    <!-- Generator: Sketch 3.3.2 (12043) - http://www.bohemiancoding.com/sketch -->
    <title>icon-host-email-black@3x</title>
    <desc>Created with Sketch.</desc>
    <defs></defs>
    <g id="Event-Details" stroke="none" stroke-width="1" fill="none" fill-rule="evenodd" sketch:type="MSPage">
        <path d="M0.718022588,1.288 C1.3079127,1.59932203 9.47958303,5.90752542 9.7837149,6.0679322 C10.0878468,6.22833898 10.4819127,6.30569492 10.8791215,6.30569492 C11.2760885,6.30569492 11.6701545,6.22833898 11.9745281,6.0679322 C12.27866,5.90752542 20.4500885,1.59932203 21.0402204,1.288 C21.6308358,0.976915254 22.1895391,0 21.1047698,0 L0.653231379,0 C-0.430570818,0 0.127407203,0.976915254 0.718022588,1.288 L0.718022588,1.288 Z M21.2901984,3.66088136 C20.6198028,4.00423729 12.3850336,8.23081356 11.9745281,8.44081356 C11.5637808,8.65128814 11.2760885,8.67857627 10.8791215,8.67857627 C10.4819127,8.67857627 10.1944621,8.65128814 9.7837149,8.44081356 C9.37296764,8.23081356 1.13892369,4.00423729 0.467802808,3.66088136 C-0.00410928003,3.41932203 6.10081346e-07,3.70264407 6.10081346e-07,3.92142373 L6.10081346e-07,12.6249153 C6.10081346e-07,13.1220339 0.674989621,13.7627119 1.19887973,13.7627119 L20.5593632,13.7627119 C21.0832534,13.7627119 21.7582424,13.1220339 21.7582424,12.6249153 L21.7582424,3.92142373 C21.7582424,3.70264407 21.762594,3.41932203 21.2901984,3.66088136 L21.2901984,3.66088136 Z" id="icon-host-email-black" fill="#000000" sketch:type="MSShapeGroup"></path>
    </g>
</svg>