<?xml version="1.0" encoding="UTF-8" standalone="no"?>
<svg width="20px" height="20px" viewBox="0 0 20 20" version="1.1" xmlns="http://www.w3.org/2000/svg" xmlns:xlink="http://www.w3.org/1999/xlink" xmlns:sketch="http://www.bohemiancoding.com/sketch/ns">
    <!-- Generator: Sketch 3.3.2 (12043) - http://www.bohemiancoding.com/sketch -->
    <title>icon-add-activity-date-time@3x</title>
    <desc>Created with Sketch.</desc>
    <defs></defs>
    <g id="Create-Event" stroke="none" stroke-width="1" fill="none" fill-rule="evenodd" sketch:type="MSPage">
        <g id="icon-add-activity-date-time" sketch:type="MSLayerGroup" fill="#000000">
            <g id="Imported-Layers-2" sketch:type="MSShapeGroup">
                <path d="M9.93333333,0.101935484 C4.47053763,0.101935484 0.0412903226,4.5311828 0.0412903226,9.9944086 C0.0412903226,15.4578495 4.47053763,19.8868817 9.93333333,19.8868817 C15.3969892,19.8868817 19.8260215,15.4578495 19.8260215,9.9944086 C19.8260215,4.5311828 15.3969892,0.101935484 9.93333333,0.101935484 L9.93333333,0.101935484 Z M9.93333333,17.7363441 C5.65806452,17.7363441 2.19182796,14.2701075 2.19182796,9.9944086 C2.19182796,5.71849462 5.65806452,2.25247312 9.93333333,2.25247312 C14.2096774,2.25247312 17.6754839,5.71849462 17.6754839,9.9944086 C17.6754839,14.2701075 14.2096774,17.7363441 9.93333333,17.7363441 L9.93333333,17.7363441 Z" id="Fill-1"></path>
                <path d="M10.6864516,4.40301075 L9.18064516,4.40301075 L9.18064516,10.3062366 L12.8423656,13.9675269 L13.9068817,12.9032258 L10.6864516,9.68258065 L10.6864516,4.40301075" id="Fill-2"></path>
            </g>
        </g>
    </g>
</svg>