<?xml version="1.0" encoding="UTF-8" standalone="no"?>
<svg width="18px" height="18px" viewBox="0 0 18 18" version="1.1" xmlns="http://www.w3.org/2000/svg" xmlns:xlink="http://www.w3.org/1999/xlink" xmlns:sketch="http://www.bohemiancoding.com/sketch/ns">
    <!-- Generator: Sketch 3.3.2 (12043) - http://www.bohemiancoding.com/sketch -->
    <title>icon-creative-commons</title>
    <desc>Created with Sketch.</desc>
    <defs></defs>
    <g id="Create-Event" stroke="none" stroke-width="1" fill="none" fill-rule="evenodd" sketch:type="MSPage">
        <g id="Create-event---Cover-photo-3" sketch:type="MSArtboardGroup" transform="translate(-178.000000, -133.000000)" fill="#FFFFFF">
            <g id="CC-Credit" sketch:type="MSLayerGroup" transform="translate(178.000000, 130.000000)">
                <path d="M8.8452,3 C11.3239385,3 13.4343692,3.86538462 15.1748308,5.59532308 C16.0078154,6.42858462 16.6411385,7.38092308 17.0736923,8.45150769 C17.5059692,9.52236923 17.7228,10.6588615 17.7228,11.8615385 C17.7228,13.0747385 17.5087385,14.2115077 17.082,15.2712923 C16.6547077,16.3313538 16.0241538,17.2679077 15.1911692,18.0801231 C14.3263385,18.9344308 13.3452,19.5888 12.2477538,20.0424 C11.1508615,20.496 10.0165846,20.7228 8.84575385,20.7228 C7.67492308,20.7228 6.55393846,20.4990462 5.48307692,20.0501538 C4.41249231,19.6020923 3.4524,18.9532615 2.60307692,18.1042154 C1.75375385,17.2551692 1.10769231,16.2975692 0.664615385,15.2319692 C0.221538462,14.1663692 0,13.0431692 0,11.8615385 C0,10.6904308 0.224030769,9.56446154 0.672369231,8.48307692 C1.12070769,7.40169231 1.77230769,6.43384615 2.62661538,5.57926154 C4.31446154,3.86012308 6.38723077,3 8.8452,3 L8.8452,3 Z M8.87732308,4.5984 C6.85190769,4.5984 5.148,5.30538462 3.76587692,6.7188 C3.06941538,7.42578462 2.53412308,8.21944615 2.15972308,9.10033846 C1.78476923,9.98123077 1.59784615,10.9017231 1.59784615,11.8618154 C1.59784615,12.8113846 1.78476923,13.7266154 2.15972308,14.6069538 C2.5344,15.4884 3.06941538,16.2743077 3.76587692,16.9652308 C4.46206154,17.6564308 5.24769231,18.1834154 6.12387692,18.5478462 C6.99923077,18.9117231 7.91723077,19.0936615 8.87732308,19.0936615 C9.82661538,19.0936615 10.7465538,18.9095077 11.6390769,18.5400923 C12.5304923,18.1704 13.3341231,17.6381538 14.0519077,16.9419692 C15.4337538,15.5916923 16.1244,13.8985846 16.1244,11.8620923 C16.1244,10.8809538 15.9449538,9.95270769 15.5863385,9.07707692 C15.2282769,8.20144615 14.7057231,7.42107692 14.0206154,6.73486154 C12.5955692,5.31064615 10.8816923,4.5984 8.87732308,4.5984 L8.87732308,4.5984 Z M8.76627692,10.3902462 L7.57910769,11.0075077 C7.45227692,10.7441538 7.29692308,10.5591692 7.11249231,10.4536615 C6.92778462,10.3484308 6.75636923,10.2955385 6.59796923,10.2955385 C5.80707692,10.2955385 5.41107692,10.8175385 5.41107692,11.8620923 C5.41107692,12.3367385 5.51132308,12.7161231 5.71153846,13.0010769 C5.91203077,13.2860308 6.20750769,13.4286462 6.59796923,13.4286462 C7.11498462,13.4286462 7.47886154,13.1752615 7.69015385,12.6690462 L8.78178462,13.2228923 C8.54972308,13.6557231 8.22793846,13.9957846 7.81643077,14.2436308 C7.40547692,14.4917538 6.9516,14.6155385 6.45563077,14.6155385 C5.66446154,14.6155385 5.02587692,14.3732308 4.54070769,13.8875077 C4.05553846,13.4023385 3.81295385,12.7272 3.81295385,11.8623692 C3.81295385,11.0183077 4.05830769,10.3487077 4.54873846,9.85273846 C5.03916923,9.35704615 5.65892308,9.10892308 6.40827692,9.10892308 C7.50572308,9.10836923 8.29135385,9.53566154 8.76627692,10.3902462 L8.76627692,10.3902462 Z M13.8774462,10.3902462 L12.7063385,11.0075077 C12.5797846,10.7441538 12.4238769,10.5591692 12.2394462,10.4536615 C12.0544615,10.3484308 11.8775077,10.2955385 11.7094154,10.2955385 C10.9182462,10.2955385 10.5222462,10.8175385 10.5222462,11.8620923 C10.5222462,12.3367385 10.6227692,12.7161231 10.8229846,13.0010769 C11.0232,13.2860308 11.3184,13.4286462 11.7094154,13.4286462 C12.2258769,13.4286462 12.5900308,13.1752615 12.8007692,12.6690462 L13.9084615,13.2228923 C13.6661538,13.6557231 13.3388308,13.9957846 12.9278769,14.2436308 C12.5163692,14.4917538 12.0680308,14.6155385 11.5828615,14.6155385 C10.7808923,14.6155385 10.1403692,14.3732308 9.66073846,13.8875077 C9.18,13.4023385 8.94018462,12.7272 8.94018462,11.8623692 C8.94018462,11.0183077 9.18526154,10.3487077 9.67624615,9.85273846 C10.1664,9.35704615 10.7861538,9.10892308 11.5352308,9.10892308 C12.6324,9.10836923 13.4136,9.53566154 13.8774462,10.3902462 L13.8774462,10.3902462 Z" id="icon-creative-commons" sketch:type="MSShapeGroup"></path>
            </g>
        </g>
    </g>
</svg>