<?xml version="1.0" encoding="UTF-8" standalone="no"?>
<svg width="22px" height="20px" viewBox="0 0 22 20" version="1.1" xmlns="http://www.w3.org/2000/svg" xmlns:xlink="http://www.w3.org/1999/xlink" xmlns:sketch="http://www.bohemiancoding.com/sketch/ns">
    <!-- Generator: Sketch 3.3.2 (12043) - http://www.bohemiancoding.com/sketch -->
    <title>icon-add-activity-media@3x</title>
    <desc>Created with Sketch.</desc>
    <defs></defs>
    <g id="Create-Event" stroke="none" stroke-width="1" fill="none" fill-rule="evenodd" sketch:type="MSPage">
        <g id="icon-add-activity-media" sketch:type="MSLayerGroup" fill="#000000" opacity="0.25">
            <path d="M18.6507185,6.42864717 L16.4230552,0.558647169 C16.2583819,0.125313836 15.7756888,-0.104061164 15.3459264,0.0459388356 L0.536659115,5.21489717 C0.106461095,5.3651055 -0.10918247,5.8382305 0.0550551542,6.27156384 L2.40404525,12.4609388 L2.40404525,9.14302217 C2.40404525,7.64656384 3.65543139,6.42864717 5.19303535,6.42864717 L9.10598585,6.42864717 L13.7730354,3.29552217 L16.4735898,6.42864717 L18.6507185,6.42864717 L18.6507185,6.42864717 Z M20.9526591,8.30781384 L5.19303535,8.30781384 C4.73517397,8.30781384 4.36378783,8.68218884 4.36378783,9.14302217 L4.36378783,18.9567722 C4.36378783,19.4178138 4.73517397,19.7917722 5.19303535,19.7917722 L20.9526591,19.7917722 C21.4107383,19.7917722 21.7821245,19.4178138 21.7821245,18.9567722 L21.7821245,9.14302217 C21.7821245,8.68218884 21.4107383,8.30781384 20.9526591,8.30781384 L20.9526591,8.30781384 Z M19.7498472,17.7038555 L6.68642149,17.7038555 L6.68642149,15.9138555 L8.69604525,11.4401055 L11.7109165,15.0194805 L14.5393324,12.2465638 L18.1756492,10.9915638 L19.7498472,14.3478138 L19.7498472,17.7038555 L19.7498472,17.7038555 Z" id="Imported-Layers-3" sketch:type="MSShapeGroup"></path>
        </g>
    </g>
</svg>