<?xml version="1.0" encoding="UTF-8" standalone="no"?>
<svg width="13px" height="14px" viewBox="0 0 13 14" version="1.1" xmlns="http://www.w3.org/2000/svg" xmlns:xlink="http://www.w3.org/1999/xlink" xmlns:sketch="http://www.bohemiancoding.com/sketch/ns">
    <!-- Generator: Sketch 3.3.2 (12043) - http://www.bohemiancoding.com/sketch -->
    <title>icon-arrow-upload-black@3x</title>
    <desc>Created with Sketch.</desc>
    <defs></defs>
    <g id="Event-Details" stroke="none" stroke-width="1" fill="none" fill-rule="evenodd" sketch:type="MSPage">
        <path d="M7.38282157,0.388837209 C7.38282157,0.388837209 12.1887781,5.13813953 12.6457944,5.62348837 C13.1023625,6.10953488 13.1335177,6.98348837 12.6457944,7.5027907 C12.1580712,8.02093023 11.4778139,8.06232558 10.879815,7.50232558 L7.84476898,4.48302326 L7.84476898,12.6046512 C7.84476898,13.3753488 7.24251149,14 6.49994392,14 C5.75715221,14 5.15511886,13.3753488 5.15511886,12.6046512 L5.15511886,4.48302326 L2.12007284,7.50232558 C1.52207397,8.06232558 0.841816623,8.02093023 0.354541677,7.5027907 C-0.133629819,6.98348837 -0.102474706,6.10953488 0.354541677,5.62348837 C0.811109784,5.13813953 5.61684213,0.388837209 5.61684213,0.388837209 C5.86070374,0.129302326 6.18032383,0 6.49994392,0 C6.82001228,0 7.13895996,0.129302326 7.38282157,0.388837209" id="icon-arrow-upload-black" fill="#000000" sketch:type="MSShapeGroup"></path>
    </g>
</svg>