<?xml version="1.0" encoding="UTF-8" standalone="no"?>
<svg width="12px" height="14px" viewBox="0 0 12 14" version="1.1" xmlns="http://www.w3.org/2000/svg" xmlns:xlink="http://www.w3.org/1999/xlink" xmlns:sketch="http://www.bohemiancoding.com/sketch/ns">
    <!-- Generator: Sketch 3.3.2 (12043) - http://www.bohemiancoding.com/sketch -->
    <title>icon-arrow-down-white@3x</title>
    <desc>Created with Sketch.</desc>
    <defs></defs>
    <g id="The-Wall" stroke="none" stroke-width="1" fill="none" fill-rule="evenodd" sketch:type="MSPage">
        <path d="M6.86268625,14 L6.86268625,3.02046463 L10.5261014,6.82658415 C10.863115,7.18480717 11.4093686,7.18480717 11.7472398,6.82658415 C12.0842534,6.47731671 12.0842534,5.91311547 11.7472398,5.55489245 L6.65344624,0.253191852 C6.47336263,0.0651247699 6.23496623,-0.0154754081 5.99914246,0.00243574255 C5.76417622,-0.0154754081 5.52577983,0.0651247699 5.34569622,0.253191852 L0.25276021,5.55489245 C-0.0842534034,5.91311547 -0.0842534034,6.47731671 0.25276021,6.82658415 C0.589773824,7.18480717 1.13602744,7.18480717 1.4738986,6.82658415 L5.13645621,3.02046463 L5.13645621,14 L6.86268625,14 Z" id="icon-arrow-down-white" fill="#FFFFFF" sketch:type="MSShapeGroup" transform="translate(6.000000, 7.000000) scale(1, -1) translate(-6.000000, -7.000000) "></path>
    </g>
</svg>