<?xml version="1.0" encoding="UTF-8" standalone="no"?>
<svg width="18px" height="18px" viewBox="0 0 18 18" version="1.1" xmlns="http://www.w3.org/2000/svg" xmlns:xlink="http://www.w3.org/1999/xlink" xmlns:sketch="http://www.bohemiancoding.com/sketch/ns">
    <!-- Generator: Sketch 3.3.2 (12043) - http://www.bohemiancoding.com/sketch -->
    <title>icon-edit-event-pencil-black@3x</title>
    <desc>Created with Sketch.</desc>
    <defs></defs>
    <g id="Create-Event" stroke="none" stroke-width="1" fill="none" fill-rule="evenodd" sketch:type="MSPage">
        <path d="M13.4835949,0.0131214404 L1.15040506,12.3460835 L0,18 L5.42574684,16.6214252 L17.7589367,4.28891891 C17.7589367,4.28891891 18.0059241,3.05512144 16.3610886,1.41074169 C14.7171646,-0.233410205 13.4835949,0.0131214404 13.4835949,0.0131214404 Z M5.10265823,15.9690961 L3.25321519,16.3673746 C3.07435443,16.0331214 2.85972152,15.699324 2.466,15.3056025 C2.07250633,14.9121088 1.73825316,14.6977037 1.40468354,14.5183873 L1.80341772,12.6691721 L2.33772152,12.1344126 C2.33772152,12.1344126 3.34435443,12.1544632 4.48040506,13.2911974 C5.61713924,14.4274759 5.63764557,15.4345645 5.63764557,15.4345645 L5.10265823,15.9690961 L5.10265823,15.9690961 Z" id="icon-edit-event-pencil-black" fill="#000000" sketch:type="MSShapeGroup"></path>
    </g>
</svg>