<?xml version="1.0" encoding="UTF-8" standalone="no"?>
<svg width="13px" height="17px" viewBox="0 0 13 17" version="1.1" xmlns="http://www.w3.org/2000/svg" xmlns:xlink="http://www.w3.org/1999/xlink" xmlns:sketch="http://www.bohemiancoding.com/sketch/ns">
    <!-- Generator: Sketch 3.3.2 (12043) - http://www.bohemiancoding.com/sketch -->
    <title>icon-arrow-download-black@3x</title>
    <desc>Created with Sketch.</desc>
    <defs></defs>
    <g id="Event-Details" stroke="none" stroke-width="1" fill="none" fill-rule="evenodd" sketch:type="MSPage">
        <path d="M7.38282157,13.6111628 C7.38282157,13.6111628 12.1887781,8.86186047 12.6457944,8.37651163 C13.1023625,7.89046512 13.1335177,7.01651163 12.6457944,6.4972093 C12.1580712,5.97906977 11.4778139,5.93767442 10.879815,6.49767442 L7.84476898,9.51697674 L7.84476898,1.39534884 C7.84476898,0.624651163 7.24251149,0 6.49994392,0 C5.75715221,0 5.15511886,0.624651163 5.15511886,1.39534884 L5.15511886,9.51697674 L2.12007284,6.49767442 C1.52207397,5.93767442 0.841816623,5.97906977 0.354541677,6.4972093 C-0.133629819,7.01651163 -0.102474706,7.89046512 0.354541677,8.37651163 C0.811109784,8.86186047 5.61684213,13.6111628 5.61684213,13.6111628 C5.86070374,13.8706977 6.18032383,14 6.49994392,14 C6.82001228,14 7.13895996,13.8706977 7.38282157,13.6111628 Z M10.8664468,17 L2.13355317,17 C1.5076429,17 1,16.5523333 1,16 C1,15.4478333 1.5076429,15 2.13355317,15 L10.8664468,15 C11.492735,15 12,15.4478333 12,16 C12,16.5523333 11.492735,17 10.8664468,17 Z" id="icon-arrow-download-black" fill="#000000" sketch:type="MSShapeGroup"></path>
    </g>
</svg>