<?xml version="1.0" encoding="UTF-8" standalone="no"?>
<svg width="29px" height="25px" viewBox="0 0 29 25" version="1.1" xmlns="http://www.w3.org/2000/svg" xmlns:xlink="http://www.w3.org/1999/xlink" xmlns:sketch="http://www.bohemiancoding.com/sketch/ns">
    <!-- Generator: Sketch 3.3.2 (12043) - http://www.bohemiancoding.com/sketch -->
    <title>icon-add-guests-black@3x</title>
    <desc>Created with Sketch.</desc>
    <defs></defs>
    <g id="Create-Event" stroke="none" stroke-width="1" fill="none" fill-rule="evenodd" sketch:type="MSPage">
        <path d="M14.5332647,17.5786932 C11.721402,16.4042614 10.8226863,15.4136364 10.8226863,13.2928977 C10.8226863,12.0193182 11.6813137,12.4352273 12.0583137,10.1034091 C12.214402,9.13607955 12.972951,10.0875 13.117951,7.87897727 C13.117951,6.99886364 12.7042745,6.78011364 12.7042745,6.78011364 C12.7042745,6.78011364 12.9146667,5.478125 12.9968333,4.47556818 C13.098902,3.22642045 12.3670784,0 8.46430392,0 C4.56238235,0 3.8299902,3.22642045 3.93262745,4.47556818 C4.01479412,5.478125 4.22461765,6.78011364 4.22461765,6.78011364 C4.22461765,6.78011364 3.81094118,6.99886364 3.81094118,7.87897727 C3.9565098,10.0875 4.7144902,9.13607955 4.87114706,10.1034091 C5.24814706,12.4352273 6.10677451,12.0193182 6.10677451,13.2928977 C6.10677451,15.4136364 5.2074902,16.4042614 2.39619608,17.5786932 C1.53927451,17.9366477 0,18.4909091 0,19.8247159 L0,25 L19.7509902,25 L19.7509902,21.1196023 C19.7509902,19.903125 17.3536569,18.7571023 14.5332647,17.5786932 Z M25.0690784,16.6403409 C22.9526471,15.8693182 22.1213137,15.2045455 21.9646569,13.9636364 C23.176402,14.0951705 24.0668725,14.2903409 24.0668725,14.2903409 C23.6136765,13.5926136 23.6949902,12.0071023 23.6949902,12.0071023 C24.2599216,9.16477273 24.1240196,7.29176136 23.6648529,6.05909091 C23.4976765,5.475 23.1238039,4.81107955 22.4056275,4.33551136 C21.8142549,3.91647727 21.1771078,3.77698864 20.6994608,3.740625 C20.4643333,3.71051136 20.2135686,3.69318182 19.942902,3.69318182 C19.6725196,3.69318182 19.4220392,3.71051136 19.1869118,3.740625 C18.7089804,3.77698864 18.0726863,3.91619318 17.4813137,4.33494318 C16.7614314,4.81164773 16.3869902,5.47670455 16.2203824,6.06136364 C15.7620686,7.29403409 15.626451,9.16647727 16.191098,12.0071023 C16.191098,12.0071023 16.2721275,13.5926136 15.8195,14.2903409 C15.8195,14.2903409 16.7096863,14.0951705 17.9208627,13.9636364 C17.8139608,14.8133523 17.3897647,15.3931818 16.4532353,15.9215909 C19.2125,17.1056818 21.9515784,18.5286932 22.0215196,21.0227273 L22.0215196,25 L29,25 L29,18.9957386 C29,18.3923295 27.4521961,17.5079545 25.0690784,16.6403409 Z" id="icon-add-guests-black" fill="#000000" sketch:type="MSShapeGroup"></path>
    </g>
</svg>