<?xml version="1.0" encoding="UTF-8" standalone="no"?>
<svg width="140px" height="22px" viewBox="0 0 140 22" version="1.1" xmlns="http://www.w3.org/2000/svg" xmlns:xlink="http://www.w3.org/1999/xlink" xmlns:sketch="http://www.bohemiancoding.com/sketch/ns">
    <!-- Generator: Sketch 3.3.2 (12043) - http://www.bohemiancoding.com/sketch -->
    <title>logo-ea-full-white@3x</title>
    <desc>Created with Sketch.</desc>
    <defs></defs>
    <g id="Invite-process" stroke="none" stroke-width="1" fill="none" fill-rule="evenodd" sketch:type="MSPage">
        <path d="M15.5937641,6.27430252 C13.8816154,4.47750866 11.7789869,3.51618554 9.3092606,3.42903425 C6.76178908,3.33036125 4.52997489,4.24205245 2.73335861,6.07222968 C0.928850906,7.90358863 0,10.1355481 0,12.7273391 C0,15.2033222 0.849352024,17.3711738 2.54542559,19.1617636 C4.21490211,20.9482175 6.28596489,21.9133812 8.71564947,21.9955102 C10.8363991,22.0593227 12.6841635,21.4415825 14.2571892,20.2279637 L14.2571892,21.628293 L18.0585217,21.628293 L18.0585217,12.7169991 C18.1435738,10.2510605 17.2860381,8.06016553 15.5937641,6.27430252 L15.5937641,6.27430252 Z M6.03606951,9.62504831 C4.70300186,10.9388172 4.34028822,12.9503873 5.20600766,14.6328505 L10.9243739,8.84364092 C9.27886397,7.97803652 7.35627704,8.31866514 6.03606951,9.62504831 M13.8637866,17.5115021 C11.3408662,20.1461301 6.95410623,20.1189507 4.37097712,17.5980626 C1.59260811,14.916166 1.57448705,10.2354028 4.45632151,7.61643249 C7.69210137,4.73482656 11.9102185,5.68462798 14.4363539,8.67967831 L6.83661156,16.3608096 C7.59068184,16.8541745 8.41431363,17.0689508 9.34199544,17.0128194 C10.4441656,16.9380761 11.36191,16.4919797 12.1303018,15.6898923 C12.9773156,14.8163113 13.4104676,13.8283997 13.3321378,12.6703214 L15.4064157,10.5751452 C16.2361852,12.9855432 15.6294217,15.6881197 13.8637866,17.5115021 Z M33.8258974,7.86281955 C36.851239,7.86281955 39.0409656,10.105119 39.0409656,13.1920475 C39.0409656,13.6582331 39.0409656,14.3282641 38.609275,14.3282641 L29.4186781,14.3282641 C29.5335423,16.831722 31.3190521,18.9292617 33.9129954,18.9292617 C35.439257,18.9292617 36.6206338,18.31743 37.3121572,17.8518353 C37.5711131,17.676351 37.6871464,17.6476945 37.8312381,17.8518353 L38.1185447,18.2592307 C38.2056428,18.3753339 38.1764152,18.5505228 38.0033883,18.7248254 C37.4270214,19.3077051 35.6131608,20.0941348 33.8258974,20.0941348 C30.3115792,20.0941348 28.1510801,17.3569932 28.1510801,13.9489344 C28.1510801,10.6295039 30.3115792,7.86281955 33.8258974,7.86281955 Z M37.7730753,13.2791988 C37.7730753,11.0079474 36.4186716,9.02769264 33.8258974,9.02769264 C31.2909937,9.02769264 29.5911206,10.8915487 29.4470288,13.2791988 L37.7730753,13.2791988 Z M40.0183342,8.59104988 C39.90347,8.35736623 39.9318207,8.15411168 40.192238,8.15411168 L40.8253063,8.15411168 C40.9699826,8.15411168 41.113782,8.21231102 41.2002955,8.41615643 L45.3772018,18.0261379 L45.4064293,18.0261379 L49.6122709,8.41615643 C49.6987844,8.21231102 49.8425839,8.15411168 49.9872601,8.15411168 L50.6206207,8.15411168 C50.8807457,8.15411168 50.9093887,8.35736623 50.7942322,8.59104988 L45.7802495,19.8314992 C45.693736,20.0058018 45.5791641,20.0941348 45.4347801,20.0941348 L45.3193313,20.0941348 C45.1468889,20.0941348 45.0603754,20.0353446 44.9738619,19.8314992 L40.0183342,8.59104988 Z M57.5913866,7.86281955 C60.6167283,7.86281955 62.8058703,10.105119 62.8058703,13.1920475 C62.8058703,13.6582331 62.8058703,14.3282641 62.3744719,14.3282641 L53.1835828,14.3282641 C53.2990316,16.831722 55.0848337,18.9292617 57.6781924,18.9292617 C59.2050386,18.9292617 60.3864153,18.31743 61.0776464,17.8518353 C61.3363101,17.676351 61.4526356,17.6476945 61.5967274,17.8518353 L61.884034,18.2592307 C61.9705475,18.3753339 61.9421968,18.5505228 61.7691698,18.7248254 C61.1930952,19.3077051 59.3783578,20.0941348 57.5913866,20.0941348 C54.077653,20.0941348 51.9162771,17.3569932 51.9162771,13.9489344 C51.9162771,10.6295039 54.077653,7.86281955 57.5913866,7.86281955 Z M61.5385646,13.2791988 C61.5385646,11.0079474 60.1841608,9.02769264 57.5913866,9.02769264 C55.0561907,9.02769264 53.3566098,10.8915487 53.2128104,13.2791988 L61.5385646,13.2791988 Z M65.4836966,8.53314596 C65.4836966,8.32900513 65.6573081,8.15411168 65.8873288,8.15411168 L66.1749277,8.15411168 C66.3771822,8.15411168 66.4920464,8.27139664 66.5212739,8.44540381 L66.6358458,9.69772363 C67.0105428,9.29032825 68.5952594,7.86281955 70.900727,7.86281955 C74.1271541,7.86281955 75.5382592,9.93081642 75.5382592,13.1920475 L75.5382592,19.4238084 C75.5382592,19.6279492 75.3661091,19.8022518 75.1641468,19.8022518 L74.6465273,19.8022518 C74.4442728,19.8022518 74.2709535,19.6279492 74.2709535,19.4238084 L74.2709535,13.1920475 C74.2709535,10.5131053 73.0322908,9.11602565 70.8425642,9.11602565 C68.4803952,9.11602565 66.8381003,10.9787 66.7223593,11.1240506 L66.7223593,19.4238084 C66.7223593,19.6569012 66.6077874,19.8022518 66.3479546,19.8022518 L65.800523,19.8022518 C65.5994376,19.8022518 65.4836966,19.6279492 65.4836966,19.4238084 L65.4836966,8.53314596 Z M79.5126187,9.29032825 L78.1593841,9.29032825 C77.8703238,9.29032825 77.812161,9.14438675 77.812161,8.91158939 L77.812161,8.44540381 C77.812161,8.24126298 77.9574219,8.15411168 78.1593841,8.15411168 L79.5126187,8.15411168 L79.5126187,4.9800319 C79.5126187,4.74693911 79.6856457,4.60158848 79.8870234,4.60158848 L80.3771691,4.57204566 C80.5776699,4.57204566 80.7512815,4.74693911 80.7512815,4.95048909 L80.7512815,8.15411168 L84.7566222,8.15411168 C84.9872274,8.15411168 85.1310269,8.32900513 85.1310269,8.53314596 L85.1310269,8.91158939 C85.1310269,9.14438675 84.9872274,9.29032825 84.7566222,9.29032825 L80.7512815,9.29032825 L80.7512815,16.7156187 C80.7512815,18.0849281 80.8953732,18.8421104 82.2497769,18.8421104 C83.2581267,18.8421104 84.4964972,18.2893644 84.8714864,18.0556807 C85.1310269,17.9097392 85.245891,18.0261379 85.3324045,18.1714885 L85.534659,18.5218663 C85.6486464,18.7248254 85.6202957,18.9003097 85.4481456,19.0170038 C85.0152858,19.3659045 83.7473956,20.0941348 82.1059775,20.0941348 C79.7139964,20.0941348 79.5126187,18.6678078 79.5126187,16.8033609 L79.5126187,9.29032825 Z M91.4091003,12.4062087 C92.6486399,12.4062087 93.8586596,12.7840613 93.8586596,12.7840613 C93.8875949,10.6295039 93.6286389,9.63922886 91.986344,9.63922886 C90.4016274,9.63922886 89.0478082,10.0761671 88.5293118,10.279717 C88.2405438,10.397002 88.0681014,10.2504697 87.9812956,9.98901576 L87.7512749,9.26078543 C87.6358262,8.91158939 87.8082686,8.73758223 88.0681014,8.6197064 C88.2405438,8.53314596 89.9120662,7.86281955 92.072273,7.86281955 C95.0113934,7.86281955 95.7312675,9.37747954 95.7312675,12.7840613 L95.7312675,19.2495058 C95.7312675,19.5407979 95.4723115,19.8022518 95.1838358,19.8022518 L94.6364042,19.8022518 C94.3195778,19.8022518 94.232772,19.6279492 94.1462585,19.3659045 L93.9159456,18.5794748 C93.311228,19.191011 92.1304358,20.0941348 90.3434646,20.0941348 C88.3273495,20.0941348 86.7999188,18.6090176 86.7999188,16.2783851 C86.7999188,14.0650376 88.4427983,12.4062087 91.4091003,12.4062087 Z M90.6605833,18.346382 C92.1012082,18.346382 93.3401632,17.4432582 93.8300166,16.7156187 L93.8300166,14.4151199 C93.4842549,14.2109791 92.6778674,13.9489344 91.4091003,13.9489344 C89.7960329,13.9489344 88.6435914,14.764316 88.6435914,16.2783851 C88.6435914,17.4432582 89.421336,18.346382 90.6605833,18.346382 Z M98.3231648,18.1714885 C98.4383213,17.9965951 98.6402835,17.5894951 98.7259202,17.4432582 C98.8705965,17.2101654 99.1868383,17.1525569 99.5045416,17.3569932 C99.5045416,17.3569932 100.742912,18.3753339 102.21218,18.3753339 C103.393557,18.3753339 104.08508,17.7640932 104.08508,16.9776635 C104.08508,15.9587319 103.22053,15.4931372 101.549884,14.6476219 C100.023038,13.890735 98.2652943,12.8718034 98.2652943,10.8915487 C98.2652943,9.66936253 99.2452934,7.86281955 101.924289,7.86281955 C103.422784,7.86281955 104.574934,8.38661361 105.122365,8.7656479 C105.382198,8.93995049 105.468711,9.34852759 105.295392,9.66936253 L105.064495,10.1343664 C104.892052,10.4546105 104.48842,10.5423526 104.229172,10.397002 C104.229172,10.397002 102.990217,9.69772363 101.924289,9.69772363 C100.628048,9.69772363 100.281994,10.36805 100.281994,10.8625967 C100.281994,11.8239198 101.232765,12.2599718 102.414142,12.8428515 C104.401907,13.8035837 106.188585,14.7067075 106.188585,16.8033609 C106.188585,18.4917326 104.574934,20.0941348 102.21218,20.0941348 C100.281994,20.0941348 99.1012017,19.2781623 98.4675488,18.7836156 C98.3231648,18.6678078 98.2366513,18.3753339 98.3231648,18.1714885 Z M107.858354,18.1714885 C107.973218,17.9965951 108.174888,17.5894951 108.26111,17.4432582 C108.404617,17.2101654 108.722028,17.1525569 109.039439,17.3569932 C109.039439,17.3569932 110.278101,18.3753339 111.747954,18.3753339 C112.928746,18.3753339 113.619977,17.7640932 113.619977,16.9776635 C113.619977,15.9587319 112.755719,15.4931372 111.084781,14.6476219 C109.557643,13.890735 107.800191,12.8718034 107.800191,10.8915487 C107.800191,9.66936253 108.780483,7.86281955 111.459478,7.86281955 C112.957974,7.86281955 114.109538,8.38661361 114.657555,8.7656479 C114.91651,8.93995049 115.003609,9.34852759 114.829997,9.66936253 L114.599684,10.1343664 C114.426365,10.4546105 114.023025,10.5423526 113.764361,10.397002 C113.764361,10.397002 112.525114,9.69772363 111.459478,9.69772363 C110.162945,9.69772363 109.817768,10.36805 109.817768,10.8625967 C109.817768,11.8239198 110.767955,12.2599718 111.949039,12.8428515 C113.936511,13.8035837 115.723483,14.7067075 115.723483,16.8033609 C115.723483,18.4917326 114.109538,20.0941348 111.747954,20.0941348 C109.817768,20.0941348 108.635807,19.2781623 108.001861,18.7836156 C107.858354,18.6678078 107.771256,18.3753339 107.858354,18.1714885 Z M117.680266,1.39737503 C117.680266,0.612127075 118.285568,0 119.034669,0 C119.812706,0 120.417424,0.612127075 120.417424,1.39737503 C120.417424,2.15485274 119.812706,2.76668439 119.034669,2.76668439 C118.285568,2.76668439 117.680266,2.15485274 117.680266,1.39737503 Z M118.083606,8.70744856 C118.083606,8.41615643 118.342562,8.15411168 118.630453,8.15411168 L119.523938,8.15411168 C119.812706,8.15411168 120.071078,8.41615643 120.071078,8.70744856 L120.071078,19.2495058 C120.071078,19.5407979 119.812706,19.8022518 119.523938,19.8022518 L118.630453,19.8022518 C118.342562,19.8022518 118.083606,19.5407979 118.083606,19.2495058 L118.083606,8.70744856 Z M122.750658,18.1714885 C122.866106,17.9965951 123.0669,17.5894951 123.15429,17.4432582 C123.298089,17.2101654 123.615208,17.1525569 123.932034,17.3569932 C123.932034,17.3569932 125.170697,18.3753339 126.64055,18.3753339 C127.821342,18.3753339 128.512865,17.7640932 128.512865,16.9776635 C128.512865,15.9587319 127.64773,15.4931372 125.977669,14.6476219 C124.449654,13.890735 122.692203,12.8718034 122.692203,10.8915487 C122.692203,9.66936253 123.673078,7.86281955 126.352366,7.86281955 C127.849985,7.86281955 129.002134,8.38661361 129.55015,8.7656479 C129.809106,8.93995049 129.89562,9.34852759 129.722593,9.66936253 L129.49228,10.1343664 C129.319837,10.4546105 128.915621,10.5423526 128.656372,10.397002 C128.656372,10.397002 127.418002,9.69772363 126.352366,9.69772363 C125.055248,9.69772363 124.710071,10.36805 124.710071,10.8625967 C124.710071,11.8239198 125.660843,12.2599718 126.841635,12.8428515 C128.829107,13.8035837 130.616371,14.7067075 130.616371,16.8033609 C130.616371,18.4917326 129.002134,20.0941348 126.64055,20.0941348 C124.710071,20.0941348 123.528402,19.2781623 122.895334,18.7836156 C122.750658,18.6678078 122.664144,18.3753339 122.750658,18.1714885 Z M133.725011,9.90186447 L132.256035,9.90186447 C131.938916,9.90186447 131.708603,9.63922886 131.708603,9.34852759 L131.708603,8.70744856 C131.708603,8.38661361 131.938916,8.15411168 132.256035,8.15411168 L133.725011,8.15411168 L133.725011,4.92183256 C133.725011,4.630245 133.984843,4.36849568 134.272442,4.36849568 L135.194571,4.31059177 C135.483047,4.31059177 135.713652,4.57204566 135.713652,4.86333779 L135.713652,8.15411168 L139.055235,8.15411168 C139.372062,8.15411168 139.602667,8.38661361 139.602667,8.70744856 L139.602667,9.34852759 C139.602667,9.63922886 139.372062,9.90186447 139.055235,9.90186447 L135.713652,9.90186447 L135.713652,16.7156187 C135.713652,17.8807873 136.001251,18.1138801 136.663839,18.1138801 C137.384297,18.1138801 138.392647,17.676351 138.767052,17.4722102 C139.199619,17.2391174 139.314483,17.4146017 139.458575,17.6476945 L139.891143,18.3753339 C140.093397,18.7248254 140.006884,18.9003097 139.68918,19.1035643 C139.284964,19.3659045 137.730351,20.0941348 136.375948,20.0941348 C134.071357,20.0941348 133.725011,18.6961689 133.725011,16.8905122 L133.725011,9.90186447 Z" id="logo-ea-full-white" fill="#FFFFFF" sketch:type="MSShapeGroup"></path>
    </g>
</svg>