<?xml version="1.0" encoding="UTF-8" standalone="no"?>
<svg width="120px" height="19px" viewBox="0 0 120 19" version="1.1" xmlns="http://www.w3.org/2000/svg" xmlns:xlink="http://www.w3.org/1999/xlink" xmlns:sketch="http://www.bohemiancoding.com/sketch/ns">
    <!-- Generator: Sketch 3.3.2 (12043) - http://www.bohemiancoding.com/sketch -->
    <title>logo-ea-full-black@3x</title>
    <desc>Created with Sketch.</desc>
    <defs></defs>
    <g id="Invite-emails" stroke="none" stroke-width="1" fill="none" fill-rule="evenodd" sketch:type="MSPage">
        <path d="M13.3660835,5.41871581 C11.8985275,3.8669393 10.0962745,3.0367057 7.97936623,2.96143867 C5.79581921,2.87622108 3.88283562,3.66359075 2.34287881,5.24419836 C0.796157919,6.82582654 0,8.75342792 0,10.9917928 C0,13.1301419 0.728016021,15.0023773 2.18179337,16.5487959 C3.61277324,18.0916424 5.38796991,18.9251928 7.47055669,18.9961224 C9.28834204,19.0512332 10.8721401,18.5177303 12.2204479,17.469605 L12.2204479,18.6789803 L15.4787329,18.6789803 L15.4787329,10.9828628 C15.5516347,8.85318862 14.8166041,6.96105205 13.3660835,5.41871581 L13.3660835,5.41871581 Z M5.17377387,8.31254172 C4.03114446,9.4471603 3.72024704,11.1844254 4.46229228,12.6374618 L9.36374907,7.63768989 C7.95331198,6.89012245 6.30538032,7.18430172 5.17377387,8.31254172 M11.8832457,15.12357 C9.72074247,17.3989306 5.96066248,17.3754575 3.74655182,15.1983267 C1.36509267,12.8821434 1.34956032,8.83966607 3.81970415,6.57782806 C6.59322974,4.08916839 10.2087587,4.90945144 12.3740177,7.49608582 L5.85995277,14.1297901 C6.50629872,14.555878 7.21226883,14.7413666 8.00742466,14.6928895 C8.95214194,14.6283385 9.73878004,14.2430733 10.3974015,13.5503615 C11.1234134,12.7959052 11.4946865,11.9427088 11.4275467,10.9425503 L13.2054991,9.13307991 C13.9167302,11.2147873 13.3966472,13.5488307 11.8832457,15.12357 Z M28.9936263,6.79061688 C31.5867763,6.79061688 33.4636848,8.72714824 33.4636848,11.3931319 C33.4636848,11.7957467 33.4636848,12.3744099 33.0936642,12.3744099 L25.2160098,12.3744099 C25.3144648,14.5364872 26.8449018,16.3479987 29.0682818,16.3479987 C30.376506,16.3479987 31.3891147,15.8195987 31.981849,15.4174941 C32.2038112,15.2659395 32.3032683,15.2411907 32.4267755,15.4174941 L32.6730383,15.7693356 C32.7476938,15.8696066 32.7226416,16.0209061 32.5743328,16.1714401 C32.080304,16.6748362 30.5255664,17.3540255 28.9936263,17.3540255 C25.9813536,17.3540255 24.1294973,14.9901305 24.1294973,12.0468069 C24.1294973,9.18002613 25.9813536,6.79061688 28.9936263,6.79061688 Z M32.3769217,11.468399 C32.3769217,9.50686363 31.2160042,7.79664365 28.9936263,7.79664365 C26.8208517,7.79664365 25.3638176,9.4063375 25.2403104,11.468399 L32.3769217,11.468399 Z M34.3014293,7.41954307 C34.2029743,7.21772538 34.2272749,7.04218736 34.4504897,7.04218736 L34.9931197,7.04218736 C35.1171279,7.04218736 35.2403846,7.09245043 35.314539,7.26849873 L38.8947444,15.5680282 L38.9197966,15.5680282 L42.5248037,7.26849873 C42.5989581,7.09245043 42.7222147,7.04218736 42.846223,7.04218736 L43.3891035,7.04218736 C43.6120678,7.04218736 43.6366189,7.21772538 43.5379134,7.41954307 L39.2402138,17.1272038 C39.1660594,17.2777379 39.0678549,17.3540255 38.9440972,17.3540255 L38.8451411,17.3540255 C38.6973333,17.3540255 38.6231789,17.3032521 38.5490245,17.1272038 L34.3014293,7.41954307 Z M49.3640457,6.79061688 C51.9571957,6.79061688 53.8336031,8.72714824 53.8336031,11.3931319 C53.8336031,11.7957467 53.8336031,12.3744099 53.4638331,12.3744099 L45.5859281,12.3744099 C45.6848842,14.5364872 47.2155717,16.3479987 49.4384506,16.3479987 C50.7471759,16.3479987 51.7597846,15.8195987 52.3522684,15.4174941 C52.5739801,15.2659395 52.6736877,15.2411907 52.7971949,15.4174941 L53.0434577,15.7693356 C53.1176121,15.8696066 53.0933115,16.0209061 52.9450027,16.1714401 C52.4512244,16.6748362 50.8957353,17.3540255 49.3640457,17.3540255 C46.352274,17.3540255 44.4996661,14.9901305 44.4996661,12.0468069 C44.4996661,9.18002613 46.352274,6.79061688 49.3640457,6.79061688 Z M52.7473411,11.468399 C52.7473411,9.50686363 51.5864236,7.79664365 49.3640457,7.79664365 C47.1910206,7.79664365 45.734237,9.4063375 45.6109803,11.468399 L52.7473411,11.468399 Z M56.1288828,7.36953515 C56.1288828,7.1932317 56.2776927,7.04218736 56.4748532,7.04218736 L56.7213666,7.04218736 C56.8947276,7.04218736 56.9931826,7.14347892 57.0182348,7.29375784 L57.1164393,8.37530677 C57.4376081,8.0234653 58.7959367,6.79061688 60.7720517,6.79061688 C63.5375606,6.79061688 64.7470793,8.57661418 64.7470793,11.3931319 L64.7470793,16.7751072 C64.7470793,16.9514107 64.599522,17.1019447 64.4264116,17.1019447 L63.9827377,17.1019447 C63.8093766,17.1019447 63.6608173,16.9514107 63.6608173,16.7751072 L63.6608173,11.3931319 C63.6608173,9.07949999 62.5991064,7.87293125 60.7221979,7.87293125 C58.6974816,7.87293125 57.2898003,9.48160453 57.1905937,9.60713463 L57.1905937,16.7751072 C57.1905937,16.9764146 57.0923892,17.1019447 56.8696754,17.1019447 L56.4004483,17.1019447 C56.2280894,17.1019447 56.1288828,16.9514107 56.1288828,16.7751072 L56.1288828,7.36953515 Z M68.1536732,8.0234653 L66.9937578,8.0234653 C66.7459919,8.0234653 66.696138,7.89742492 66.696138,7.69637266 L66.696138,7.29375784 C66.696138,7.11745439 66.8206473,7.04218736 66.9937578,7.04218736 L68.1536732,7.04218736 L68.1536732,4.30093664 C68.1536732,4.09962923 68.301982,3.97409914 68.4745915,3.97409914 L68.8947164,3.94858489 C69.0665742,3.94858489 69.2153841,4.09962923 69.2153841,4.2754224 L69.2153841,7.04218736 L72.6485333,7.04218736 C72.8461949,7.04218736 72.9694516,7.1932317 72.9694516,7.36953515 L72.9694516,7.69637266 C72.9694516,7.89742492 72.8461949,8.0234653 72.6485333,8.0234653 L69.2153841,8.0234653 L69.2153841,14.4362162 C69.2153841,15.6188015 69.3388913,16.2727317 70.4998088,16.2727317 C71.3641086,16.2727317 72.425569,15.7953601 72.7469883,15.5935424 C72.9694516,15.4675021 73.0679066,15.5680282 73.142061,15.6935583 L73.315422,15.9961573 C73.4131255,16.1714401 73.3888249,16.3229948 73.2412676,16.423776 C72.870245,16.7250993 71.7834819,17.3540255 70.3765521,17.3540255 C68.3262827,17.3540255 68.1536732,16.1221976 68.1536732,14.5119935 L68.1536732,8.0234653 Z M78.3506574,10.714453 C79.4131199,10.714453 80.4502797,11.0407802 80.4502797,11.0407802 C80.4750813,9.18002613 80.2531191,8.32478856 78.8454377,8.32478856 C77.4871092,8.32478856 76.3266927,8.70214428 75.8822672,8.87793744 C75.6347518,8.979229 75.486944,8.85267834 75.4125391,8.62687725 L75.2153785,7.99795106 C75.1164224,7.69637266 75.2642302,7.54609374 75.486944,7.44429189 C75.6347518,7.36953515 77.0674853,6.79061688 78.9190911,6.79061688 C81.4383372,6.79061688 82.0553721,8.09873233 82.0553721,11.0407802 L82.0553721,16.6245732 C82.0553721,16.8761436 81.8334099,17.1019447 81.586145,17.1019447 L81.1169179,17.1019447 C80.8453524,17.1019447 80.7709474,16.9514107 80.696793,16.7250993 L80.4993819,16.04591 C79.9810525,16.574055 78.9689449,17.3540255 77.4372553,17.3540255 C75.7091568,17.3540255 74.3999304,16.0714243 74.3999304,14.0586053 C74.3999304,12.1470779 75.8081128,10.714453 78.3506574,10.714453 Z M77.7090714,15.8446026 C78.9438928,15.8446026 80.0058542,15.0646321 80.4257285,14.4362162 L80.4257285,12.4494218 C80.1293614,12.2731183 79.4381721,12.0468069 78.3506574,12.0468069 C76.9680282,12.0468069 75.9802212,12.7510002 75.9802212,14.0586053 C75.9802212,15.0646321 76.6468594,15.8446026 77.7090714,15.8446026 Z M84.2769984,15.6935583 C84.375704,15.5425139 84.5488145,15.1909276 84.6222173,15.0646321 C84.7462255,14.8633247 85.01729,14.8135719 85.2896071,14.9901305 C85.2896071,14.9901305 86.3510675,15.8696066 87.61044,15.8696066 C88.6230486,15.8696066 89.2157829,15.3417168 89.2157829,14.6625276 C89.2157829,13.7825412 88.4747398,13.3804366 87.0427578,12.6502189 C85.7340326,11.9965439 84.2273951,11.1165575 84.2273951,9.4063375 C84.2273951,8.3508131 85.0673943,6.79061688 87.3636761,6.79061688 C88.6481008,6.79061688 89.6356573,7.24298448 90.1048844,7.57033227 C90.3275982,7.72086633 90.4017526,8.07372837 90.2531933,8.3508131 L90.0552811,8.75240735 C89.9074733,9.02898178 89.5615029,9.1047591 89.3392901,8.979229 C89.3392901,8.979229 88.2773287,8.37530677 87.3636761,8.37530677 C86.2526124,8.37530677 85.9559948,8.95422504 85.9559948,9.38133354 C85.9559948,10.2115671 86.7709418,10.5881574 87.7835505,11.0915535 C89.4873485,11.9212768 91.0187875,12.7012474 91.0187875,14.5119935 C91.0187875,15.9701327 89.6356573,17.3540255 87.61044,17.3540255 C85.9559948,17.3540255 84.9438872,16.649322 84.4007561,16.2222135 C84.2769984,16.1221976 84.202844,15.8696066 84.2769984,15.6935583 Z M92.4500179,15.6935583 C92.5484729,15.5425139 92.7213329,15.1909276 92.7952368,15.0646321 C92.918243,14.8633247 93.1903095,14.8135719 93.4623761,14.9901305 C93.4623761,14.9901305 94.524087,15.8696066 95.7839605,15.8696066 C96.7960681,15.8696066 97.3885519,15.3417168 97.3885519,14.6625276 C97.3885519,13.7825412 96.6477593,13.3804366 95.2155268,12.6502189 C93.906551,11.9965439 92.4001641,11.1165575 92.4001641,9.4063375 C92.4001641,8.3508131 93.2404138,6.79061688 95.5366956,6.79061688 C96.8211203,6.79061688 97.8081757,7.24298448 98.2779039,7.57033227 C98.4998661,7.72086633 98.5745216,8.07372837 98.4257117,8.3508131 L98.2283006,8.75240735 C98.0797413,9.02898178 97.7340213,9.1047591 97.5123096,8.979229 C97.5123096,8.979229 96.4500977,8.37530677 95.5366956,8.37530677 C94.4253814,8.37530677 94.1295153,8.95422504 94.1295153,9.38133354 C94.1295153,10.2115671 94.9439613,10.5881574 95.9563194,11.0915535 C97.6598669,11.9212768 99.1915565,12.7012474 99.1915565,14.5119935 C99.1915565,15.9701327 97.8081757,17.3540255 95.7839605,17.3540255 C94.1295153,17.3540255 93.1164056,16.649322 92.5730241,16.2222135 C92.4500179,16.1221976 92.3753625,15.8696066 92.4500179,15.6935583 Z M100.868799,1.20682389 C100.868799,0.528655201 101.38763,0 102.029717,0 C102.696605,0 103.214935,0.528655201 103.214935,1.20682389 C103.214935,1.86100919 102.696605,2.38940925 102.029717,2.38940925 C101.38763,2.38940925 100.868799,1.86100919 100.868799,1.20682389 Z M101.214519,7.52006921 C101.214519,7.26849873 101.436481,7.04218736 101.683245,7.04218736 L102.44909,7.04218736 C102.696605,7.04218736 102.918067,7.26849873 102.918067,7.52006921 L102.918067,16.6245732 C102.918067,16.8761436 102.696605,17.1019447 102.44909,17.1019447 L101.683245,17.1019447 C101.436481,17.1019447 101.214519,16.8761436 101.214519,16.6245732 L101.214519,7.52006921 Z M105.214849,15.6935583 C105.313805,15.5425139 105.485914,15.1909276 105.56082,15.0646321 C105.684077,14.8633247 105.955893,14.8135719 106.227458,14.9901305 C106.227458,14.9901305 107.289169,15.8696066 108.549043,15.8696066 C109.56115,15.8696066 110.153884,15.3417168 110.153884,14.6625276 C110.153884,13.7825412 109.41234,13.3804366 107.980859,12.6502189 C106.671132,11.9965439 105.164745,11.1165575 105.164745,9.4063375 C105.164745,8.3508131 106.005496,6.79061688 108.302028,6.79061688 C109.585701,6.79061688 110.573258,7.24298448 111.042986,7.57033227 C111.264948,7.72086633 111.339103,8.07372837 111.190794,8.3508131 L110.993383,8.75240735 C110.845575,9.02898178 110.499103,9.1047591 110.276891,8.979229 C110.276891,8.979229 109.21543,8.37530677 108.302028,8.37530677 C107.190213,8.37530677 106.894347,8.95422504 106.894347,9.38133354 C106.894347,10.2115671 107.709294,10.5881574 108.721401,11.0915535 C110.424949,11.9212768 111.956889,12.7012474 111.956889,14.5119935 C111.956889,15.9701327 110.573258,17.3540255 108.549043,17.3540255 C106.894347,17.3540255 105.881488,16.649322 105.338858,16.2222135 C105.214849,16.1221976 105.140695,15.8696066 105.214849,15.6935583 Z M114.621438,8.55161022 L113.362316,8.55161022 C113.0905,8.55161022 112.893089,8.32478856 112.893089,8.07372837 L112.893089,7.52006921 C112.893089,7.24298448 113.0905,7.04218736 113.362316,7.04218736 L114.621438,7.04218736 L114.621438,4.25067358 C114.621438,3.99884796 114.844151,3.77279173 115.090665,3.77279173 L115.881061,3.7227838 C116.128326,3.7227838 116.325987,3.94858489 116.325987,4.20015537 L116.325987,7.04218736 L119.190202,7.04218736 C119.461767,7.04218736 119.659429,7.24298448 119.659429,7.52006921 L119.659429,8.07372837 C119.659429,8.32478856 119.461767,8.55161022 119.190202,8.55161022 L116.325987,8.55161022 L116.325987,14.4362162 C116.325987,15.4424981 116.572501,15.6438055 117.140433,15.6438055 C117.757969,15.6438055 118.622269,15.2659395 118.943187,15.0896361 C119.313959,14.8883286 119.412414,15.0398833 119.535922,15.2411907 L119.906694,15.8696066 C120.080055,16.1714401 120.0059,16.3229948 119.733583,16.4985328 C119.387112,16.7250993 118.054587,17.3540255 116.893669,17.3540255 C114.918306,17.3540255 114.621438,16.1466913 114.621438,14.5872605 L114.621438,8.55161022 Z" id="logo-ea-full-black" fill="#000000" sketch:type="MSShapeGroup"></path>
    </g>
</svg>